<?xml version="1.0" standalone="no"?>
<!DOCTYPE svg PUBLIC "-//W3C//DTD SVG 20010904//EN"
 "http://www.w3.org/TR/2001/REC-SVG-20010904/DTD/svg10.dtd">
<svg version="1.0" xmlns="http://www.w3.org/2000/svg"
 width="512.000000pt" height="512.000000pt" viewBox="0 0 512.000000 512.000000"
 preserveAspectRatio="xMidYMid meet">
<metadata>
Created by potrace 1.16, written by Peter Selinger 2001-2019
</metadata>
<g transform="translate(0.000000,512.000000) scale(0.100000,-0.100000)"
fill="#000000" stroke="none">
<path d="M0 4860 l0 -260 256 -2 256 -3 455 -960 c250 -528 455 -964 456 -970
0 -5 -80 -146 -177 -313 -163 -278 -179 -311 -202 -399 -28 -110 -31 -203 -9
-288 45 -172 188 -320 359 -370 43 -13 269 -15 1633 -15 l1583 0 0 260 0 260
-1493 0 c-1435 0 -1495 1 -1510 18 -10 10 -17 24 -17 31 0 6 52 110 116 231
l116 220 982 0 c1078 0 1038 -2 1156 61 120 64 120 64 620 969 254 459 480
862 501 894 36 55 39 64 39 130 -1 110 -41 184 -125 229 l-40 22 -1938 5
-1938 5 -113 250 -112 250 -427 3 -427 2 0 -260z"/>
<path d="M1418 1015 c-189 -48 -349 -210 -387 -393 -55 -264 104 -530 363
-607 66 -20 218 -19 286 1 168 50 310 197 356 369 18 67 18 187 -1 260 -42
160 -176 302 -340 359 -69 24 -206 29 -277 11z"/>
<path d="M3978 1015 c-189 -48 -349 -210 -387 -393 -55 -264 104 -530 363
-607 66 -20 218 -19 286 1 168 50 310 197 356 369 18 67 18 187 -1 260 -42
160 -176 302 -340 359 -69 24 -206 29 -277 11z"/>
</g>
</svg>
